# xmcd
#
# Track frame offsets:
#	150
#	12156
#	22693
#	36262
#	46628
#	61107
#	74256
#	85615
#	98857
#	112518
#	123423
#	132965
#	145391
#	158582
#	170328
#	184120
#	194837
#	207988
#	222726
#	233724
#	246885
#	260222
#	271727
#	283220
#
# Disc length: 3880 seconds
# Revision: 0
# Processed by: cddbd v1.5.2PL0 Copyright (c) Steve Scherf et al.
# Submitted via: dBpowerAMP V12.0
#
DISCID=540f2618
DTITLE=Various Artist - Saint Etienne present Songs for the Carnegie Deli
DYEAR=2015
DGENRE=
TTITLE0=The Valli Boys - Night Hawk
TTITLE1=Irma Thomas - Live Again
TTITLE2=Samantha Jones - I Deserve It
TTITLE3=Chuck Jackson - I'm Your Man
TTITLE4=Little Anthony and The Imperials - Summer's Comin' In
TTITLE5=Lou Johnson - Park Avenue
TTITLE6=Marva Josie - Don't
TTITLE7=Porgy and The Monarchs - If It's For Real Baby
TTITLE8=The Chiffons - Up On The Bridge
TTITLE9=The Groove - Love (It's Getting Better)
TTITLE10=Baby Washington - Run My Heart
TTITLE11=Junior Lewis - Where Do I Go From Here
TTITLE12=Jay and The Americans - Tomorrow
TTITLE13=Dawn - Lover's Melody
TTITLE14=David Coleman - Drown My Heart
TTITLE15=Joan Moody - Boy You Move Me
TTITLE16=Dee Dee Sharp - Deep Dark Secret
TTITLE17=Lesley Gore - I'm Fallin' Down
TTITLE18=The Shirelles - Shades of Blue
TTITLE19=Eddie Jones - Let's Stop Fooling Ourselves
TTITLE20=The Hesitations - Is This the Way To Treat A Girl (You Bet It Is)
TTITLE21=Tutti Hill - He's a Lover
TTITLE22=Gloria Dennis - How Can I Be Sure (That It's Love)
TTITLE23=The Tradewinds - Catch Me in the Meadow
EXTD=
EXTT0=
EXTT1=
EXTT2=
EXTT3=
EXTT4=
EXTT5=
EXTT6=
EXTT7=
EXTT8=
EXTT9=
EXTT10=
EXTT11=
EXTT12=
EXTT13=
EXTT14=
EXTT15=
EXTT16=
EXTT17=
EXTT18=
EXTT19=
EXTT20=
EXTT21=
EXTT22=
EXTT23=
PLAYORDER=
